<svg width="10" height="10" viewBox="0 0 36 32" fill="none" xmlns="http://www.w3.org/2000/svg">
    <path d="M18 8.69229C22.7288 8.69229 26.9609 9.60229 29.9735 11.0293C33.0623 12.4924 34.5385 14.3173 34.5385 16C34.5385 17.6827 33.0623 19.5075 29.9735 20.9707C26.9609 22.3977 22.7288 23.3077 18 23.3077C13.2712 23.3077 9.03911 22.3977 6.02653 20.9707C2.93768 19.5075 1.46155 17.6827 1.46155 16C1.46155 14.3173 2.93768 12.4924 6.02653 11.0293C9.03911 9.60229 13.2712 8.69229 18 8.69229Z" stroke="#9640DA" stroke-width="2"/>
    <path d="M24.1564 12.4456C26.4628 16.4404 27.7576 20.4585 28.0212 23.6972C28.2917 27.02 27.469 29.1453 26.0593 29.9592C24.6495 30.7731 22.3977 30.423 19.6553 28.5273C16.9823 26.6796 14.1499 23.5493 11.8435 19.5544C9.53704 15.5596 8.24225 11.5414 7.9786 8.30275C7.70812 4.97993 8.53084 2.85469 9.94057 2.04078C11.3503 1.22688 13.6022 1.577 16.3446 3.47266C19.0175 5.32032 21.8499 8.45071 24.1564 12.4456Z" stroke="#9640DA" stroke-width="2"/>
    <path d="M24.1566 19.5544C21.8501 23.5493 19.0177 26.6797 16.3448 28.5273C13.6024 30.423 11.3505 30.7731 9.94077 29.9592C8.53104 29.1453 7.70832 27.0201 7.9788 23.6973C8.24245 20.4586 9.53724 16.4404 11.8437 12.4456C14.1501 8.45074 16.9825 5.32035 19.6555 3.47269C22.3979 1.57703 24.6497 1.22691 26.0595 2.04082C27.4692 2.85472 28.2919 4.97996 28.0214 8.30278C27.7578 11.5415 26.463 15.5596 24.1566 19.5544Z" stroke="#9640DA" stroke-width="2"/>
    <path d="M23.5 16C23.5 12.9624 21.0376 10.5 18 10.5C14.9624 10.5 12.5 12.9624 12.5 16C12.5 19.0376 14.9624 21.5 18 21.5C21.0376 21.5 23.5 19.0376 23.5 16Z" fill="#9640DA" stroke="#FCFEFF" stroke-width="3"/>
</svg>
